<?xml version="1.0" encoding="UTF-8"?>
<!DOCTYPE svg PUBLIC "-//W3C//DTD SVG 1.1//EN" "http://www.w3.org/Graphics/SVG/1.1/DTD/svg11.dtd">
<!-- Creator: CorelDRAW X7 -->
<svg xmlns="http://www.w3.org/2000/svg" xml:space="preserve" width="51.0646mm" height="51.0646mm" version="1.1" style="shape-rendering:geometricPrecision; text-rendering:geometricPrecision; image-rendering:optimizeQuality; fill-rule:evenodd; clip-rule:evenodd"
viewBox="0 0 1514 1514"
 xmlns:xlink="http://www.w3.org/1999/xlink">
 <defs>
  <style type="text/css">
   <![CDATA[
    .str0 {stroke:#FEFEFE;stroke-width:7.83991;stroke-dasharray:78.399132 39.199566}
    .fil1 {fill:#EBECEC}
    .fil0 {fill:#D9DADA}
    .fil2 {fill:#B2B3B3}
   ]]>
  </style>
 </defs>
 <g id="Layer_x0020_1">
  <metadata id="CorelCorpID_0Corel-Layer"/>
  <rect class="fil0" width="1514" height="1514"/>
  <polygon class="fil1 str0" points="70,73 1441,73 1441,1445 70,1445 "/>
  <g id="_1383467068224">
   <path class="fil2" d="M327 474l0 520c3,9 1,18 12,35 24,39 57,40 99,40 30,0 547,1 558,0l-18 -18c-15,-17 -39,-45 -45,-65l-523 0 0 -505 717 0 0 137c14,-1 26,-3 41,-3 15,0 27,2 41,4l0 -146c-3,-33 -26,-60 -56,-70l-14 -4c0,-1 0,0 -1,-1l-739 0c-4,2 -10,3 -15,4 -27,9 -47,30 -54,57 -1,4 -2,11 -3,15z"/>
   <path class="fil2" d="M1145 853c1,-16 0,-41 0,-58 0,-34 -4,-35 21,-35 10,0 18,-1 20,9 2,10 -2,64 1,84 18,0 37,0 56,0 34,0 36,-4 36,20 0,11 2,19 -8,21 -5,1 -76,0 -84,0 -2,11 -1,44 -1,58 0,34 4,35 -21,35 -9,0 -18,1 -20,-9 -2,-12 2,-68 -1,-84l-84 0c-9,-2 -8,-11 -8,-21 0,-10 -2,-18 8,-20l85 0zm217 36l0 -30c-2,-6 -2,-15 -3,-22 -8,-38 -32,-85 -61,-108 -4,-4 -8,-7 -13,-11 -5,-4 -9,-7 -14,-10 -33,-21 -73,-32 -114,-31 -103,5 -189,90 -188,198 1,152 168,248 303,164 5,-3 9,-7 14,-10 16,-12 10,-9 18,-17 54,-51 54,-115 58,-123z"/>
   <path class="fil2" d="M911 920c0,-8 -3,-22 -4,-32 -1,-34 3,-66 14,-97 9,-29 13,-13 -11,-49l-67 -99c-3,-4 -5,-9 -9,-10 -6,0 -8,5 -10,9 -3,3 -5,7 -8,10l-75 111c-20,28 -18,36 -35,12 -5,-7 -9,-15 -14,-22 -36,-51 -32,-60 -50,-34l-105 154c-5,7 -29,38 -28,45 8,5 84,2 100,2l202 0c21,0 84,1 100,0z"/>
   <path class="fil2" d="M558 548c-32,7 -60,38 -52,78 6,32 38,60 78,52 31,-7 59,-37 51,-77 -6,-33 -37,-60 -77,-53z"/>
  </g>
 </g>
</svg>
